<svg id="Capa_1" enable-background="new 0 0 512 512" height="512" viewBox="0 0 512 512" width="512" xmlns="http://www.w3.org/2000/svg"><g><path d="m221.57 236.57c-29.7 0-53.86 24.16-53.86 53.86s24.16 53.86 53.86 53.86 53.86-24.16 53.86-53.86-24.16-53.86-53.86-53.86zm15.001 68.859h-30v-30h30z"/><path d="m330.58 318.69 96.04-112.53c-10.99-26.76-27.3-51.34-48.37-72.41-41.85-41.84-97.49-64.89-156.68-64.89-59.18 0-114.82 23.05-156.67 64.89-41.85 41.85-64.9 97.5-64.9 156.68s23.05 114.82 64.9 156.67 97.49 64.9 156.67 64.9c59.19 0 114.83-23.05 156.68-64.9s64.89-97.49 64.89-156.67c0-17.27-1.96-34.24-5.78-50.65l-83.96 98.38zm-231.723-28.261h-30c0-84.207 68.507-152.715 152.714-152.715v30c-67.665 0-122.714 55.05-122.714 122.715zm122.713 83.861c-46.24 0-83.86-37.62-83.86-83.86s37.62-83.86 83.86-83.86 83.86 37.62 83.86 83.86-37.62 83.86-83.86 83.86z"/><path d="m512 0h-98.86v98.86h34.43v82.75l-20.95 24.55c4.47 10.87 8.06 22.11 10.74 33.62l40.21-47.11v-93.81h34.43z"/></g></svg>